Coordinates
version=1
nRows=19
nColumns=34
inDegrees=yes

Units are S.I. units (second, meters, Newtons, ...)
If the header above contains a line with 'inDegrees', this indicates whether rotational values are in degrees (yes) or radians (no).

endheader
time	pelvis_tilt	pelvis_list	pelvis_rotation	pelvis_tx	pelvis_ty	pelvis_tz	hip_flexion_r	hip_adduction_r	hip_rotation_r	knee_angle_r	ankle_angle_r	subtalar_angle_r	mtp_angle_r	hip_flexion_l	hip_adduction_l	hip_rotation_l	knee_angle_l	ankle_angle_l	subtalar_angle_l	mtp_angle_l	lumbar_extension	lumbar_bending	lumbar_rotation	arm_flex_r	arm_add_r	arm_rot_r	elbow_flex_r	pro_sup_r	arm_flex_l	arm_add_l	arm_rot_l	elbow_flex_l	pro_sup_l
      1.03333330	     -1.37414525	      1.44861663	     -3.38448536	      1.82759256	      0.88763174	     -0.17408081	     -0.46499110	     -5.57899845	     -0.73401602	      0.00000000	      2.32197360	    -15.26693650	      0.00000000	     -1.52136929	     -3.18555701	     -3.87352316	      0.00009696	      3.00662718	     -1.91200143	      0.00000000	    -13.34610369	     -0.44515293	     -0.88069942	     15.39755328	     -0.25742010	     34.03703639	     62.34203397	     83.87603387	     13.56305048	     -6.72727783	     33.76095415	     54.78443587	     81.22708806
      1.05000000	     -1.39686797	      1.41940244	     -3.29192004	      1.82749525	      0.88763623	     -0.17424737	     -0.44550976	     -5.54539052	     -0.59056957	      0.00000000	      2.33454646	    -15.26935932	      0.00000000	     -1.45373885	     -3.23083935	     -3.81479938	      0.00162885	      2.99778541	     -1.82274777	      0.00000000	    -13.19572680	     -0.35764074	     -0.89351336	     15.42983005	     -0.22030210	     33.99013159	     62.39455758	     83.84265753	     13.70091634	     -6.71855759	     33.72598670	     54.87528811	     81.23026837
      1.06666670	     -1.39410716	      1.41626828	     -3.29255228	      1.82760973	      0.88815777	     -0.17416943	     -0.44136401	     -5.54732297	     -0.59010024	      0.00000000	      2.33506083	    -15.27008219	      0.00000000	     -1.45125082	     -3.23146771	     -3.81402138	      0.00021395	      2.99808106	     -1.82195113	      0.00000000	    -13.19573060	     -0.35725751	     -0.89396555	     15.42927130	     -0.22058817	     33.98966681	     62.39475794	     83.84229566	     13.70069636	     -6.71834749	     33.72606261	     54.87575949	     81.23031992
      1.08333330	     -1.39271027	      1.41396634	     -3.29310718	      1.82769324	      0.88870765	     -0.17414701	     -0.43849009	     -5.54883924	     -0.58959690	      0.00000000	      2.33553764	    -15.27065822	      0.00000000	     -1.44927123	     -3.23221665	     -3.81338502	      0.00000000	      2.99843424	     -1.82134343	      0.00000000	    -13.19542782	     -0.35687338	     -0.89433295	     15.42885216	     -0.22067607	     33.98934092	     62.39496649	     83.84202198	     13.70068155	     -6.71805904	     33.72610329	     54.87620293	     81.23035749
      1.10000000	     -1.39379967	      1.41206874	     -3.29376455	      1.82766589	      0.88916197	     -0.17418382	     -0.43704908	     -5.54942462	     -0.58903081	      0.00000000	      2.33603435	    -15.27121669	      0.00000000	     -1.44847414	     -3.23248324	     -3.81281713	      0.00000000	      2.99886544	     -1.82075099	      0.00000000	    -13.19494920	     -0.35645515	     -0.89472123	     15.42829424	     -0.22064499	     33.98907742	     62.39516182	     83.84175265	     13.70073596	     -6.71764955	     33.72614659	     54.87668930	     81.23039483
      1.11666670	     -1.39329547	      1.40856262	     -3.29426254	      1.82758039	      0.88889378	     -0.17418290	     -0.43633108	     -5.54880818	     -0.58843215	      0.00000000	      2.33645022	    -15.27165061	      0.00000000	     -1.44783051	     -3.23045230	     -3.81228524	      0.00000000	      2.99924967	     -1.82004747	      0.00000000	    -13.19474640	     -0.35594249	     -0.89525263	     15.42750701	     -0.22065824	     33.98885609	     62.39523043	     83.84148173	     13.70087304	     -6.71706301	     33.72620273	     54.87716812	     81.23043269
      1.13333330	     -1.39160907	      1.40253543	     -3.29464142	      1.82751370	      0.88853949	     -0.17406483	     -0.43496209	     -5.54768088	     -0.58767467	      0.00000000	      2.33703569	    -15.27230319	      0.00000000	     -1.44648540	     -3.22640005	     -3.81162935	      0.00000000	      2.99994411	     -1.81917938	      0.00000000	    -13.19428649	     -0.35495769	     -0.89624143	     15.42633027	     -0.22072322	     33.98856908	     62.39530415	     83.84111262	     13.70139842	     -6.71596166	     33.72626132	     54.87795542	     81.23048471
      1.15000000	     -1.39100969	      1.39830407	     -3.29503274	      1.82744321	      0.88847087	     -0.17392519	     -0.43343884	     -5.54557248	     -0.58710975	      0.00000000	      2.33766465	    -15.27307303	      0.00000000	     -1.44570742	     -3.22291799	     -3.81114668	      0.00000000	      3.00082097	     -1.81853219	      0.00000000	    -13.19343951	     -0.35383468	     -0.89740848	     15.42508807	     -0.22079660	     33.98831109	     62.39539752	     83.84076181	     13.70218808	     -6.71471592	     33.72628559	     54.87883774	     81.23053408
      1.16666670	     -1.43410702	      1.33179938	     -3.36196900	      1.82717258	      0.88872545	     -0.17382470	     -0.35541714	     -5.45902912	     -0.55397556	      0.00000000	      2.38712557	    -15.34204873	      0.00000000	     -1.41308356	     -3.29097502	     -3.79623491	      0.00000000	      3.07742013	     -1.78534535	      0.00000000	    -13.12832167	     -0.27791395	     -0.97772965	     15.33928565	     -0.21563593	     33.96715775	     62.40543290	     83.81311896	     13.77832728	     -6.63266408	     33.72074025	     54.94631215	     81.23389060
      1.18333330	     -1.43689405	      1.33247772	     -3.35895137	      1.82696184	      0.88886918	     -0.17381051	     -0.35490566	     -5.45647574	     -0.55336515	      0.00000000	      2.38739732	    -15.34262334	      0.00000000	     -1.41432729	     -3.29020857	     -3.79685815	      0.00000000	      3.07835848	     -1.78534005	      0.00000000	    -13.12734867	     -0.27704138	     -0.97685615	     15.33889151	     -0.21529108	     33.96688636	     62.40572760	     83.81277964	     13.77751254	     -6.63278973	     33.72070043	     54.94654478	     81.23392651
      1.20000000	     -1.47865696	      1.29295036	     -3.25000612	      1.82665381	      0.88885589	     -0.17383506	     -0.32094022	     -5.38685148	     -0.52273317	      0.00000000	      2.40307494	    -15.40274268	      0.00000000	     -1.33040264	     -3.34666736	     -3.85084998	      0.00000000	      3.15159159	     -1.78082878	      0.00000000	    -13.06989389	     -0.21326385	     -0.94545124	     15.30986964	     -0.20063357	     33.93173644	     62.42651206	     83.78045495	     13.75615808	     -6.62749810	     33.71265140	     54.97653232	     81.23714135
      1.21666670	     -1.49291023	      1.27982683	     -3.34007643	      1.82647957	      0.88876001	     -0.17386119	     -0.26385179	     -5.36711264	     -0.53629795	      0.00000000	      2.40312349	    -15.43685053	      0.00000000	     -1.33314644	     -3.36032298	     -3.84741179	      0.00000000	      3.16516541	     -1.76060265	      0.00000000	    -13.04304369	     -0.18930058	     -0.98190022	     15.27871723	     -0.21953996	     33.90967878	     62.42881796	     83.76456408	     13.76573044	     -6.60492192	     33.71227128	     54.99524088	     81.23908212
      1.23333330	     -1.49085398	      1.28179157	     -3.33919881	      1.82638115	      0.88865539	     -0.17396425	     -0.26128422	     -5.36466084	     -0.53616218	      0.00000000	      2.40283177	    -15.43736690	      0.00000000	     -1.33291127	     -3.36060622	     -3.84813071	      0.00000000	      3.16556537	     -1.76045209	      0.00000000	    -13.04228676	     -0.18886310	     -0.98183384	     15.27801641	     -0.21961080	     33.90926298	     62.42891949	     83.76416855	     13.76520109	     -6.60472152	     33.71228834	     54.99548245	     81.23913037
      1.25000000	     -1.48525167	      1.28207435	     -3.33909409	      1.82628385	      0.88828835	     -0.17406005	     -0.25762627	     -5.36181764	     -0.53633326	      0.00000000	      2.40237345	    -15.43805227	      0.00000000	     -1.33105676	     -3.35953541	     -3.84912191	      0.00000000	      3.16599025	     -1.76031597	      0.00000000	    -13.04159852	     -0.18830132	     -0.98238820	     15.27677909	     -0.22006571	     33.90874721	     62.42884362	     83.76370157	     13.76475649	     -6.60411947	     33.71238302	     54.99582453	     81.23919409
      1.26666670	     -1.52688328	      1.25408156	     -3.38079100	      1.82605691	      0.88792913	     -0.17416208	     -0.17676060	     -5.33365928	     -0.56879990	      0.00000000	      2.36274296	    -15.50112584	      0.00000000	     -1.27577079	     -3.37719191	     -3.93813896	      0.00000000	      3.20053701	     -1.76740311	      0.00000000	    -13.00989502	     -0.12649030	     -1.05824196	     15.19932351	     -0.27674655	     33.86060886	     62.42095585	     83.72860842	     13.76872037	     -6.53743076	     33.71823359	     55.03111273	     81.24402360
      1.28333330	     -1.52570356	      1.25407481	     -3.37960135	      1.82587499	      0.88765633	     -0.17417978	     -0.17708891	     -5.33229273	     -0.56880129	      0.00000000	      2.36218881	    -15.50163788	      0.00000000	     -1.27408409	     -3.37637318	     -3.93903850	      0.00000000	      3.20091095	     -1.76736985	      0.00000000	    -13.00886213	     -0.12591424	     -1.05743454	     15.19899598	     -0.27654407	     33.86018106	     62.42120104	     83.72819153	     13.76774317	     -6.53759422	     33.71821757	     55.03115103	     81.24407422
      1.30000000	     -1.51251687	      1.25199706	     -3.37822343	      1.82554240	      0.88745259	     -0.17432764	     -0.17074143	     -5.33045386	     -0.57001429	      0.00000000	      2.36037413	    -15.50534893	      0.00000000	     -1.26134629	     -3.37512773	     -3.94362868	      0.00000000	      3.20330170	     -1.76766577	      0.00000000	    -13.00388525	     -0.12187747	     -1.05587669	     15.19734647	     -0.27670221	     33.85770694	     62.42233564	     83.72612695	     13.76522464	     -6.53708165	     33.71812654	     55.03221929	     81.24434089
      1.31666670	     -1.51190641	      1.25368765	     -3.37901569	      1.82553112	      0.88766355	     -0.17442153	     -0.16957205	     -5.33010386	     -0.57035681	      0.00000000	      2.36028503	    -15.50598286	      0.00000000	     -1.26009501	     -3.37631789	     -3.94412971	      0.00000000	      3.20364414	     -1.76772308	      0.00000000	    -13.00325542	     -0.12122547	     -1.05591362	     15.19716970	     -0.27678537	     33.85737661	     62.42248844	     83.72587368	     13.76518393	     -6.53686588	     33.71811662	     55.03246596	     81.24437583
      1.33333330	     -1.50711836	      1.25154486	     -3.38137394	      1.82557323	      0.88798974	     -0.17446874	     -0.16516016	     -5.33169600	     -0.57134996	      0.00000000	      2.36030029	    -15.50742419	      0.00000000	     -1.25623105	     -3.37597171	     -3.94477122	      0.00000000	      3.20427111	     -1.76762586	      0.00000000	    -13.00225879	     -0.11951587	     -1.05644389	     15.19665919	     -0.27720776	     33.85670434	     62.42268031	     83.72538169	     13.76530109	     -6.53602092	     33.71818595	     55.03307228	     81.24445174
